<svg width="40" height="40" viewBox="0 0 40 40" fill="none" xmlns="http://www.w3.org/2000/svg">
<circle cx="20" cy="20" r="20" fill="white"/>
<path d="M9.16675 20.0007C9.16675 20.5753 9.39502 21.1264 9.80135 21.5327C10.2077 21.939 10.7588 22.1673 11.3334 22.1673C11.9081 22.1673 12.4592 21.939 12.8655 21.5327C13.2718 21.1264 13.5001 20.5753 13.5001 20.0007C13.5001 19.426 13.2718 18.8749 12.8655 18.4686C12.4592 18.0623 11.9081 17.834 11.3334 17.834C10.7588 17.834 10.2077 18.0623 9.80135 18.4686C9.39502 18.8749 9.16675 19.426 9.16675 20.0007Z" fill="black"/>
<path d="M17.8333 20.0007C17.8333 20.5753 18.0615 21.1264 18.4679 21.5327C18.8742 21.939 19.4253 22.1673 19.9999 22.1673C20.5746 22.1673 21.1257 21.939 21.532 21.5327C21.9383 21.1264 22.1666 20.5753 22.1666 20.0007C22.1666 19.7161 22.1105 19.4344 22.0017 19.1715C21.8928 18.9086 21.7332 18.6698 21.532 18.4686C21.3308 18.2674 21.0919 18.1078 20.8291 17.9989C20.5662 17.89 20.2844 17.834 19.9999 17.834C19.7154 17.834 19.4336 17.89 19.1708 17.9989C18.9079 18.1078 18.669 18.2674 18.4679 18.4686C18.2667 18.6698 18.1071 18.9086 17.9982 19.1715C17.8893 19.4344 17.8333 19.7161 17.8333 20.0007Z" fill="black"/>
<path d="M26.5 20.0007C26.5 20.5753 26.7283 21.1264 27.1346 21.5327C27.5409 21.939 28.092 22.1673 28.6667 22.1673C29.2413 22.1673 29.7924 21.939 30.1987 21.5327C30.6051 21.1264 30.8333 20.5753 30.8333 20.0007C30.8333 19.426 30.6051 18.8749 30.1987 18.4686C29.7924 18.0623 29.2413 17.834 28.6667 17.834C28.092 17.834 27.5409 18.0623 27.1346 18.4686C26.7283 18.8749 26.5 19.426 26.5 20.0007Z" fill="black"/>
</svg>
