<svg width="99" height="76" viewBox="0 0 99 76" fill="none" xmlns="http://www.w3.org/2000/svg">
<foreignObject x="-8" y="-8" width="115" height="92"><div xmlns="http://www.w3.org/1999/xhtml" style="backdrop-filter:blur(4px);clip-path:url(#bgblur_0_8941_2406_clip_path);height:100%;width:100%"></div></foreignObject><g data-figma-bg-blur-radius="8">
<rect width="99" height="76" rx="16" fill="white" fill-opacity="0.8"/>
<path d="M38.397 30.0747L47.568 27.6893C49.1661 27.2736 50.173 27.8648 50.5887 29.4629L53.0738 39.0172C53.4895 40.6153 52.8983 41.6222 51.3002 42.0378L42.1291 44.4233C40.531 44.839 39.5242 44.2478 39.1085 42.6497L36.6233 33.0954C36.2077 31.4973 36.7989 30.4904 38.397 30.0747Z" fill="#0F62FE"/>
<path d="M56.8183 34.1616C56.8603 34.3319 57.0071 34.4611 57.1826 34.4611H58.7876C60.3705 34.4611 61.6537 35.7444 61.6537 37.3273V46.4918C61.6537 48.0747 60.3705 49.3579 58.7876 49.3579H43.8554C42.2725 49.3579 40.9893 48.0747 40.9893 46.4918V37.3273C40.9893 35.7444 42.2725 34.4611 43.8554 34.4611H45.4604C45.6358 34.4611 45.7827 34.3319 45.8247 34.1616C46.1728 32.7489 47.4482 31.7012 48.9684 31.7012H53.6745C55.1947 31.7012 56.4702 32.7489 56.8183 34.1616Z" fill="#C1D0FF" fill-opacity="0.4"/>
<path d="M51.3037 44.6522C52.7987 44.6522 54.0106 43.4403 54.0106 41.9453C54.0106 40.4504 52.7987 39.2385 51.3037 39.2385C49.8088 39.2385 48.5968 40.4504 48.5968 41.9453C48.5968 43.4403 49.8088 44.6522 51.3037 44.6522ZM51.3037 45.8907C53.4827 45.8907 55.2491 44.1243 55.2491 41.9453C55.2491 39.7664 53.4827 38 51.3037 38C49.1248 38 47.3584 39.7664 47.3584 41.9453C47.3584 44.1243 49.1248 45.8907 51.3037 45.8907Z" fill="white"/>
<path d="M56.6289 38.4957C56.6289 38.7209 56.7184 38.9369 56.8776 39.0962C57.0369 39.2555 57.2529 39.3449 57.4781 39.3449C57.7034 39.3449 57.9194 39.2555 58.0786 39.0962C58.2379 38.9369 58.3274 38.7209 58.3274 38.4957C58.3274 38.2705 58.2379 38.0545 58.0786 37.8952C57.9194 37.736 57.7034 37.6465 57.4781 37.6465C57.2529 37.6465 57.0369 37.736 56.8776 37.8952C56.7184 38.0545 56.6289 38.2705 56.6289 38.4957Z" fill="white"/>
<path d="M61.0738 27.3057L58.8182 26.8319C58.7787 26.8236 58.7375 26.8291 58.7015 26.8474C58.6655 26.8658 58.6369 26.8959 58.6204 26.9328L57.268 29.957C57.2219 30.06 57.2827 30.1793 57.3931 30.2024L58.9986 30.5397C59.0089 30.5418 59.0185 30.5462 59.0268 30.5526C59.0352 30.5589 59.042 30.567 59.0468 30.5762C59.0517 30.5855 59.0544 30.5958 59.0548 30.6062C59.0552 30.6167 59.0532 30.6271 59.0491 30.6367L58.124 32.8057C58.0952 32.8732 58.1756 32.9345 58.2331 32.8888L61.2014 30.5293C61.2717 30.4734 61.2451 30.3608 61.1572 30.3423L59.8799 30.074C59.869 30.0717 59.8588 30.0669 59.8502 30.0599C59.8415 30.053 59.8346 30.0441 59.83 30.0339C59.8254 30.0238 59.8233 30.0127 59.8238 30.0016C59.8243 29.9905 59.8274 29.9796 59.8329 29.9699L61.1914 27.5659C61.2503 27.4617 61.1909 27.3303 61.0738 27.3057Z" fill="#0F62FE"/>
</g>
<defs>
<clipPath id="bgblur_0_8941_2406_clip_path" transform="translate(8 8)"><rect width="99" height="76" rx="16"/>
</clipPath></defs>
</svg>
