<svg width="40" height="40" viewBox="0 0 40 40" fill="none" xmlns="http://www.w3.org/2000/svg">
<g clip-path="url(#clip0_8654_1561)">
<circle cx="20" cy="20" r="20" fill="white"/>
<path d="M9.1665 19.9997C9.1665 20.5743 9.39478 21.1254 9.80111 21.5317C10.2074 21.9381 10.7585 22.1663 11.3332 22.1663C11.9078 22.1663 12.4589 21.9381 12.8652 21.5317C13.2716 21.1254 13.4998 20.5743 13.4998 19.9997C13.4998 19.425 13.2716 18.8739 12.8652 18.4676C12.4589 18.0613 11.9078 17.833 11.3332 17.833C10.7585 17.833 10.2074 18.0613 9.80111 18.4676C9.39478 18.8739 9.1665 19.425 9.1665 19.9997Z" fill="black"/>
<path d="M17.8335 19.9997C17.8335 20.5743 18.0618 21.1254 18.4681 21.5317C18.8744 21.9381 19.4255 22.1663 20.0002 22.1663C20.5748 22.1663 21.1259 21.9381 21.5322 21.5317C21.9386 21.1254 22.1668 20.5743 22.1668 19.9997C22.1668 19.7151 22.1108 19.4334 22.0019 19.1705C21.893 18.9077 21.7334 18.6688 21.5322 18.4676C21.331 18.2664 21.0922 18.1068 20.8293 17.9979C20.5664 17.8891 20.2847 17.833 20.0002 17.833C19.7156 17.833 19.4339 17.8891 19.171 17.9979C18.9081 18.1068 18.6693 18.2664 18.4681 18.4676C18.2669 18.6688 18.1073 18.9077 17.9984 19.1705C17.8895 19.4334 17.8335 19.7151 17.8335 19.9997Z" fill="black"/>
<path d="M26.5 19.9997C26.5 20.5743 26.7283 21.1254 27.1346 21.5317C27.5409 21.9381 28.092 22.1663 28.6667 22.1663C29.2413 22.1663 29.7924 21.9381 30.1987 21.5317C30.6051 21.1254 30.8333 20.5743 30.8333 19.9997C30.8333 19.425 30.6051 18.8739 30.1987 18.4676C29.7924 18.0613 29.2413 17.833 28.6667 17.833C28.092 17.833 27.5409 18.0613 27.1346 18.4676C26.7283 18.8739 26.5 19.425 26.5 19.9997Z" fill="black"/>
</g>
<defs>
<clipPath id="clip0_8654_1561">
<rect width="40" height="40" fill="white"/>
</clipPath>
</defs>
</svg>
